<svg width="66" height="66" viewBox="0 0 66 66" fill="none" xmlns="http://www.w3.org/2000/svg">
<g id="Bell-Icon">
<g id="Group">
<path id="Vector" d="M25.5484 54.2581C25.5484 58.5335 29.0149 62 33.2903 62C37.5658 62 41.0323 58.5335 41.0323 54.2581" stroke="white" stroke-width="4" stroke-miterlimit="10" stroke-linejoin="round"/>
<path id="Vector_2" d="M33.2903 7.80646C23.669 7.80646 15.871 15.6045 15.871 25.2258V42.6452L12 48.4516V54.2581H54.5806V48.4516L50.7097 42.6452V25.2258C50.7097 15.6045 42.9116 7.80646 33.2903 7.80646Z" stroke="white" stroke-width="4" stroke-miterlimit="10" stroke-linejoin="round"/>
<path id="Vector_3" d="M15.871 42.6452H37.1613" stroke="white" stroke-width="4" stroke-miterlimit="10" stroke-linejoin="round"/>
<path id="Vector_4" d="M41.0323 42.6452H44.9033" stroke="white" stroke-width="4" stroke-miterlimit="10" stroke-linejoin="round"/>
<path id="Vector_5" d="M33.2903 2C31.1516 2 29.4194 3.73226 29.4194 5.87097V9.74194H37.1613V5.87097C37.1613 3.73226 35.429 2 33.2903 2Z" fill="white"/>
</g>
</g>
</svg>
